<mxfile host="Electron" modified="2024-01-11T06:59:10.311Z" agent="Mozilla/5.0 (Windows NT 10.0; Win64; x64) AppleWebKit/537.36 (KHTML, like Gecko) draw.io/22.1.18 Chrome/120.0.6099.199 Electron/28.1.2 Safari/537.36" etag="5o8vUncLlj6abcUdnCjp" version="22.1.18" type="device">
  <diagram name="Seite-1" id="5tacjTL13yIVD7EYSFNC">
    <mxGraphModel dx="1036" dy="606" grid="1" gridSize="10" guides="1" tooltips="1" connect="1" arrows="1" fold="1" page="1" pageScale="1" pageWidth="827" pageHeight="1169" math="0" shadow="0">
      <root>
        <mxCell id="0" />
        <mxCell id="1" parent="0" />
        <mxCell id="B9huk5qQoW90LjsDYRmo-1" value="" style="rounded=0;whiteSpace=wrap;html=1;fillOpacity=0;editable=0;movable=1;resizable=1;rotatable=1;deletable=1;locked=0;connectable=0;" parent="1" vertex="1">
          <mxGeometry x="170" y="80" width="530" height="460" as="geometry" />
        </mxCell>
        <mxCell id="B9huk5qQoW90LjsDYRmo-2" value="Mitarbeiter" style="shape=umlActor;verticalLabelPosition=bottom;verticalAlign=top;html=1;outlineConnect=0;" parent="1" vertex="1">
          <mxGeometry x="60" y="150" width="30" height="60" as="geometry" />
        </mxCell>
        <mxCell id="B9huk5qQoW90LjsDYRmo-3" value="Praktikant" style="shape=umlActor;verticalLabelPosition=bottom;verticalAlign=top;html=1;outlineConnect=0;" parent="1" vertex="1">
          <mxGeometry x="60" y="370" width="30" height="60" as="geometry" />
        </mxCell>
        <mxCell id="B9huk5qQoW90LjsDYRmo-7" value="Tanken" style="ellipse;whiteSpace=wrap;html=1;" parent="1" vertex="1">
          <mxGeometry x="220" y="114" width="110" height="40" as="geometry" />
        </mxCell>
        <mxCell id="B9huk5qQoW90LjsDYRmo-8" value="Gesch채ftsessen abhalten" style="ellipse;whiteSpace=wrap;html=1;" parent="1" vertex="1">
          <mxGeometry x="220" y="174" width="110" height="60" as="geometry" />
        </mxCell>
        <mxCell id="B9huk5qQoW90LjsDYRmo-9" value="Tankf체llungen und KM Stande Tabell-arisch erfassen" style="ellipse;whiteSpace=wrap;html=1;" parent="1" vertex="1">
          <mxGeometry x="310" y="444" width="120" height="80" as="geometry" />
        </mxCell>
        <mxCell id="B9huk5qQoW90LjsDYRmo-11" value="" style="endArrow=none;html=1;rounded=0;" parent="1" source="B9huk5qQoW90LjsDYRmo-2" target="B9huk5qQoW90LjsDYRmo-7" edge="1">
          <mxGeometry width="50" height="50" relative="1" as="geometry">
            <mxPoint x="90" y="290" as="sourcePoint" />
            <mxPoint x="140" y="240" as="targetPoint" />
          </mxGeometry>
        </mxCell>
        <mxCell id="B9huk5qQoW90LjsDYRmo-12" value="" style="endArrow=none;html=1;rounded=0;" parent="1" source="B9huk5qQoW90LjsDYRmo-2" target="B9huk5qQoW90LjsDYRmo-8" edge="1">
          <mxGeometry width="50" height="50" relative="1" as="geometry">
            <mxPoint x="100" y="290" as="sourcePoint" />
            <mxPoint x="150" y="240" as="targetPoint" />
          </mxGeometry>
        </mxCell>
        <mxCell id="B9huk5qQoW90LjsDYRmo-13" value="Quittung sammeln und archivieren" style="ellipse;whiteSpace=wrap;html=1;" parent="1" vertex="1">
          <mxGeometry x="430" y="164" width="120" height="80" as="geometry" />
        </mxCell>
        <mxCell id="B9huk5qQoW90LjsDYRmo-14" value="include" style="endArrow=open;endSize=12;dashed=1;html=1;rounded=0;" parent="1" source="B9huk5qQoW90LjsDYRmo-8" target="B9huk5qQoW90LjsDYRmo-13" edge="1">
          <mxGeometry width="160" relative="1" as="geometry">
            <mxPoint x="10" y="534" as="sourcePoint" />
            <mxPoint x="680" y="404" as="targetPoint" />
          </mxGeometry>
        </mxCell>
        <mxCell id="B9huk5qQoW90LjsDYRmo-15" value="include" style="endArrow=open;endSize=12;dashed=1;html=1;rounded=0;" parent="1" source="B9huk5qQoW90LjsDYRmo-7" target="B9huk5qQoW90LjsDYRmo-13" edge="1">
          <mxGeometry width="160" relative="1" as="geometry">
            <mxPoint x="330" y="134" as="sourcePoint" />
            <mxPoint x="490" y="134" as="targetPoint" />
          </mxGeometry>
        </mxCell>
        <mxCell id="B9huk5qQoW90LjsDYRmo-16" value="Daten auswerten" style="ellipse;whiteSpace=wrap;html=1;" parent="1" vertex="1">
          <mxGeometry x="570" y="244" width="100" height="60" as="geometry" />
        </mxCell>
        <mxCell id="B9huk5qQoW90LjsDYRmo-17" value="" style="endArrow=none;html=1;rounded=0;" parent="1" source="B9huk5qQoW90LjsDYRmo-2" target="B9huk5qQoW90LjsDYRmo-16" edge="1">
          <mxGeometry width="50" height="50" relative="1" as="geometry">
            <mxPoint x="230" y="330" as="sourcePoint" />
            <mxPoint x="280" y="280" as="targetPoint" />
            <Array as="points">
              <mxPoint x="250" y="260" />
            </Array>
          </mxGeometry>
        </mxCell>
        <mxCell id="B9huk5qQoW90LjsDYRmo-18" value="" style="endArrow=none;html=1;rounded=0;" parent="1" source="B9huk5qQoW90LjsDYRmo-3" target="B9huk5qQoW90LjsDYRmo-27" edge="1">
          <mxGeometry width="50" height="50" relative="1" as="geometry">
            <mxPoint x="130" y="550" as="sourcePoint" />
            <mxPoint x="180" y="500" as="targetPoint" />
          </mxGeometry>
        </mxCell>
        <mxCell id="B9huk5qQoW90LjsDYRmo-19" value="Daten unter &lt;br&gt;Account im SAP System erfassen" style="ellipse;whiteSpace=wrap;html=1;" parent="1" vertex="1">
          <mxGeometry x="374" y="284" width="120" height="80" as="geometry" />
        </mxCell>
        <mxCell id="B9huk5qQoW90LjsDYRmo-21" value="include" style="endArrow=open;endSize=12;dashed=1;html=1;rounded=0;" parent="1" source="B9huk5qQoW90LjsDYRmo-19" target="B9huk5qQoW90LjsDYRmo-16" edge="1">
          <mxGeometry width="160" relative="1" as="geometry">
            <mxPoint x="340" y="214" as="sourcePoint" />
            <mxPoint x="440" y="214" as="targetPoint" />
          </mxGeometry>
        </mxCell>
        <mxCell id="B9huk5qQoW90LjsDYRmo-22" value="extend" style="endArrow=open;endSize=12;dashed=1;html=1;rounded=0;" parent="1" source="B9huk5qQoW90LjsDYRmo-19" target="B9huk5qQoW90LjsDYRmo-9" edge="1">
          <mxGeometry width="160" relative="1" as="geometry">
            <mxPoint x="551" y="329" as="sourcePoint" />
            <mxPoint x="449" y="338" as="targetPoint" />
          </mxGeometry>
        </mxCell>
        <mxCell id="B9huk5qQoW90LjsDYRmo-25" value="dispatch" style="html=1;verticalAlign=bottom;startArrow=circle;startFill=1;endArrow=open;startSize=6;endSize=8;curved=0;rounded=0;" parent="1" target="B9huk5qQoW90LjsDYRmo-26" edge="1">
          <mxGeometry width="80" relative="1" as="geometry">
            <mxPoint x="406" y="375" as="sourcePoint" />
            <mxPoint x="536" y="418.78947368421063" as="targetPoint" />
          </mxGeometry>
        </mxCell>
        <mxCell id="B9huk5qQoW90LjsDYRmo-26" value="Wenn Konzernweite 체berpr체fung" style="rounded=0;whiteSpace=wrap;html=1;" parent="1" vertex="1">
          <mxGeometry x="510" y="400" width="120" height="60" as="geometry" />
        </mxCell>
        <mxCell id="B9huk5qQoW90LjsDYRmo-27" value="Praktikant zu Excel Schulung schicken" style="ellipse;whiteSpace=wrap;html=1;" parent="1" vertex="1">
          <mxGeometry x="200" y="314" width="120" height="80" as="geometry" />
        </mxCell>
        <mxCell id="B9huk5qQoW90LjsDYRmo-28" value="include" style="endArrow=open;endSize=12;dashed=1;html=1;rounded=0;" parent="1" source="B9huk5qQoW90LjsDYRmo-9" target="B9huk5qQoW90LjsDYRmo-27" edge="1">
          <mxGeometry width="160" relative="1" as="geometry">
            <mxPoint x="340" y="214" as="sourcePoint" />
            <mxPoint x="350" y="364" as="targetPoint" />
          </mxGeometry>
        </mxCell>
        <mxCell id="B9huk5qQoW90LjsDYRmo-29" value="" style="endArrow=none;html=1;rounded=0;" parent="1" source="B9huk5qQoW90LjsDYRmo-3" target="B9huk5qQoW90LjsDYRmo-9" edge="1">
          <mxGeometry width="50" height="50" relative="1" as="geometry">
            <mxPoint x="50" y="540" as="sourcePoint" />
            <mxPoint x="100" y="490" as="targetPoint" />
          </mxGeometry>
        </mxCell>
        <mxCell id="vF4zriZJ7V7Z3gB6HmXa-1" value="Firma?" style="text;html=1;strokeColor=none;fillColor=none;align=center;verticalAlign=middle;whiteSpace=wrap;rounded=0;" vertex="1" parent="1">
          <mxGeometry x="170" y="80" width="60" height="30" as="geometry" />
        </mxCell>
      </root>
    </mxGraphModel>
  </diagram>
</mxfile>
